<svg width="22" height="24" viewBox="0 0 22 24" fill="none" xmlns="http://www.w3.org/2000/svg">
<path d="M3.45641 6.74199C3.37185 5.54391 3.63759 4.36374 4.3412 3.41452C4.9512 2.554 5.74541 2.08404 6.70269 1.8094C7.50898 1.57018 8.03745 1.86329 8.26998 2.75972C8.60217 4.09991 9.07628 5.44018 9.24841 6.85129C9.30277 7.47252 8.90114 8.35089 8.46629 8.80328C7.37614 9.87655 7.60263 10.6576 8.43006 12.282C8.68675 12.8057 9.09442 13.7111 9.88864 14.9096C10.7161 16.1169 11.1539 16.7649 12.2169 16.2152C13.3977 15.6212 14.2583 16.0032 15.1492 16.9621C15.7531 17.6546 16.4175 18.2495 17.0215 18.942C17.8942 19.9718 17.8549 20.6818 17.1725 21.4091C15.9434 22.7486 13.9141 23.1913 12.4042 22.2943C11.5707 21.8058 10.7402 21.1664 10.0789 20.4206C7.16477 17.1002 5.06297 13.2388 3.79765 8.88089C3.59532 8.14421 3.50171 7.39872 3.45641 6.74199Z" stroke="#0AD9C6" stroke-width="2" stroke-miterlimit="10"/>
</svg>
